{
    "asset" : {
        "generator" : "Khronos glTF Blender I/O v1.7.33",
        "version" : "2.0"
    },
    "scene" : 0,
    "scenes" : [
        {
            "name" : "Scene",
            "nodes" : [
                0
            ]
        }
    ],
    "nodes" : [
        {
            "mesh" : 0,
            "name" : "Arcade",
            "rotation" : [
                0,
                0.9527866244316101,
                0,
                -0.3036406636238098
            ],
            "scale" : [
                1.08042573928833,
                1.08042573928833,
                1.08042573928833
            ],
            "translation" : [
                9.393143653869629,
                0,
                -4.411588668823242
            ]
        }
    ],
    "materials" : [
        {
            "doubleSided" : true,
            "name" : "Black",
            "pbrMetallicRoughness" : {
                "baseColorFactor" : [
                    0.013410420157015324,
                    0.013410420157015324,
                    0.013410420157015324,
                    1
                ],
                "metallicFactor" : 0,
                "roughnessFactor" : 0.5
            }
        },
        {
            "doubleSided" : true,
            "emissiveFactor" : [
                1,
                1,
                1
            ],
            "emissiveTexture" : {
                "index" : 0
            },
            "name" : "Arcade screen",
            "pbrMetallicRoughness" : {}
        },
        {
            "doubleSided" : true,
            "emissiveFactor" : [
                0.11094500310719013,
                1,
                0.5377350002527237
            ],
            "name" : "Glow",
            "pbrMetallicRoughness" : {}
        },
        {
            "doubleSided" : true,
            "emissiveFactor" : [
                1,
                1,
                1
            ],
            "emissiveTexture" : {
                "index" : 1
            },
            "name" : "Logo",
            "pbrMetallicRoughness" : {}
        }
    ],
    "meshes" : [
        {
            "name" : "Plane.003",
            "primitives" : [
                {
                    "attributes" : {
                        "POSITION" : 0,
                        "NORMAL" : 1,
                        "TEXCOORD_0" : 2
                    },
                    "indices" : 3,
                    "material" : 0
                },
                {
                    "attributes" : {
                        "POSITION" : 4,
                        "NORMAL" : 5,
                        "TEXCOORD_0" : 6
                    },
                    "indices" : 7,
                    "material" : 1
                },
                {
                    "attributes" : {
                        "POSITION" : 8,
                        "NORMAL" : 9,
                        "TEXCOORD_0" : 10
                    },
                    "indices" : 11,
                    "material" : 2
                },
                {
                    "attributes" : {
                        "POSITION" : 12,
                        "NORMAL" : 13,
                        "TEXCOORD_0" : 14
                    },
                    "indices" : 15,
                    "material" : 3
                }
            ]
        }
    ],
    "textures" : [
        {
            "sampler" : 0,
            "source" : 0
        },
        {
            "sampler" : 1,
            "source" : 1
        }
    ],
    "images" : [
        {
            "bufferView" : 8,
            "mimeType" : "image/jpeg",
            "name" : "14750012323_6ae38db67f_b"
        },
        {
            "bufferView" : 17,
            "mimeType" : "image/jpeg",
            "name" : "800px-Space_invaders_logo.svg"
        }
    ],
    "accessors" : [
        {
            "bufferView" : 0,
            "componentType" : 5126,
            "count" : 439,
            "max" : [
                1.3895115852355957,
                5.551051139831543,
                1.3133975267410278
            ],
            "min" : [
                -1.3133975267410278,
                0,
                -1.0389609336853027
            ],
            "type" : "VEC3"
        },
        {
            "bufferView" : 1,
            "componentType" : 5126,
            "count" : 439,
            "type" : "VEC3"
        },
        {
            "bufferView" : 2,
            "componentType" : 5126,
            "count" : 439,
            "type" : "VEC2"
        },
        {
            "bufferView" : 3,
            "componentType" : 5123,
            "count" : 708,
            "type" : "SCALAR"
        },
        {
            "bufferView" : 4,
            "componentType" : 5126,
            "count" : 20,
            "max" : [
                0.1503962129354477,
                4.113478660583496,
                0.9103254675865173
            ],
            "min" : [
                -0.054309263825416565,
                3.003453016281128,
                -0.635888934135437
            ],
            "type" : "VEC3"
        },
        {
            "bufferView" : 5,
            "componentType" : 5126,
            "count" : 20,
            "type" : "VEC3"
        },
        {
            "bufferView" : 6,
            "componentType" : 5126,
            "count" : 20,
            "type" : "VEC2"
        },
        {
            "bufferView" : 7,
            "componentType" : 5123,
            "count" : 30,
            "type" : "SCALAR"
        },
        {
            "bufferView" : 9,
            "componentType" : 5126,
            "count" : 56,
            "max" : [
                1.3895115852355957,
                5.551051139831543,
                1.3133975267410278
            ],
            "min" : [
                0.15368185937404633,
                0,
                -1.0389609336853027
            ],
            "type" : "VEC3"
        },
        {
            "bufferView" : 10,
            "componentType" : 5126,
            "count" : 56,
            "type" : "VEC3"
        },
        {
            "bufferView" : 11,
            "componentType" : 5126,
            "count" : 56,
            "type" : "VEC2"
        },
        {
            "bufferView" : 12,
            "componentType" : 5123,
            "count" : 84,
            "type" : "SCALAR"
        },
        {
            "bufferView" : 13,
            "componentType" : 5126,
            "count" : 4,
            "max" : [
                0.40673118829727173,
                5.354377746582031,
                1.0666613578796387
            ],
            "min" : [
                0.22829324007034302,
                4.76619291305542,
                -0.7922236919403076
            ],
            "type" : "VEC3"
        },
        {
            "bufferView" : 14,
            "componentType" : 5126,
            "count" : 4,
            "type" : "VEC3"
        },
        {
            "bufferView" : 15,
            "componentType" : 5126,
            "count" : 4,
            "type" : "VEC2"
        },
        {
            "bufferView" : 16,
            "componentType" : 5123,
            "count" : 6,
            "type" : "SCALAR"
        }
    ],
    "bufferViews" : [
        {
            "buffer" : 0,
            "byteLength" : 5268,
            "byteOffset" : 0
        },
        {
            "buffer" : 0,
            "byteLength" : 5268,
            "byteOffset" : 5268
        },
        {
            "buffer" : 0,
            "byteLength" : 3512,
            "byteOffset" : 10536
        },
        {
            "buffer" : 0,
            "byteLength" : 1416,
            "byteOffset" : 14048
        },
        {
            "buffer" : 0,
            "byteLength" : 240,
            "byteOffset" : 15464
        },
        {
            "buffer" : 0,
            "byteLength" : 240,
            "byteOffset" : 15704
        },
        {
            "buffer" : 0,
            "byteLength" : 160,
            "byteOffset" : 15944
        },
        {
            "buffer" : 0,
            "byteLength" : 60,
            "byteOffset" : 16104
        },
        {
            "buffer" : 0,
            "byteLength" : 70042,
            "byteOffset" : 16164
        },
        {
            "buffer" : 0,
            "byteLength" : 672,
            "byteOffset" : 86208
        },
        {
            "buffer" : 0,
            "byteLength" : 672,
            "byteOffset" : 86880
        },
        {
            "buffer" : 0,
            "byteLength" : 448,
            "byteOffset" : 87552
        },
        {
            "buffer" : 0,
            "byteLength" : 168,
            "byteOffset" : 88000
        },
        {
            "buffer" : 0,
            "byteLength" : 48,
            "byteOffset" : 88168
        },
        {
            "buffer" : 0,
            "byteLength" : 48,
            "byteOffset" : 88216
        },
        {
            "buffer" : 0,
            "byteLength" : 32,
            "byteOffset" : 88264
        },
        {
            "buffer" : 0,
            "byteLength" : 12,
            "byteOffset" : 88296
        },
        {
            "buffer" : 0,
            "byteLength" : 63293,
            "byteOffset" : 88308
        }
    ],
    "samplers" : [
        {
            "magFilter" : 9729,
            "minFilter" : 9987
        },
        {
            "magFilter" : 9729,
            "minFilter" : 9987,
            "wrapS" : 33071,
            "wrapT" : 33071
        }
    ],
    "buffers" : [
        {
            "byteLength" : 151604,
            "uri" : "data:application/octet-stream;base64,"
        }
    ]
}
